<?xml version="1.0" encoding="UTF-8"?>
<svg width="512px" height="350px" version="1.1" xmlns="http://www.w3.org/2000/svg" xmlns:xlink="http://www.w3.org/1999/xlink">
    <!-- Generator: Sketch 49.3 (51167) - http://www.bohemiancoding.com/sketch -->
    <g id="Page-1" stroke="none" stroke-width="1" fill="none" fill-rule="evenodd">
        <g id="Feathers" opacity="0.9" fill-rule="nonzero">
            <path d="M256,256.527344 C256,231.058594 394.261719,210.410156 464.953125,210.410156 C464.953125,210.410156 512,213.054688 512,256.527344 C512,300.003906 464.953125,302.648438 464.953125,302.648438 C394.261719,302.648438 256,282 256,256.527344 Z" id="Shape" fill="#3C9AD1"></path>
            <path d="M464.953125,210.410156 C457.195312,210.410156 448.625,210.660156 439.515625,211.136719 C451.910156,213.378906 481.09375,222.285156 481.09375,256.53125 C481.09375,290.773438 451.910156,299.683594 439.515625,301.921875 C448.625,302.398438 457.195312,302.648438 464.953125,302.648438 C464.953125,302.648438 512,300.003906 512,256.53125 C512,213.054688 464.953125,210.410156 464.953125,210.410156 Z" id="Shape" fill="#2C86C6"></path>
            <path d="M47.046875,210.410156 C117.738281,210.410156 256,231.058594 256,256.53125 C256,282 117.738281,302.648438 47.046875,302.648438 C47.046875,302.648438 0,300.003906 0,256.53125 C0,213.054688 47.046875,210.410156 47.046875,210.410156 Z" id="Shape" fill="#3C9AD1"></path>
            <path d="M86.421875,256.527344 C86.421875,246.296875 73.046875,238 56.546875,238 C40.046875,238 26.671875,246.296875 26.671875,256.527344 C26.671875,266.761719 40.046875,275.058594 56.546875,275.058594 C73.046875,275.058594 86.421875,266.761719 86.421875,256.527344 Z" id="Shape" fill="#FFFFFF"></path>
            <path d="M256,256.527344 C243.289062,234.472656 352.726562,147.316406 413.945312,111.898438 C413.945312,111.898438 456.011719,90.613281 477.703125,128.265625 C499.394531,165.914062 459.96875,191.777344 459.96875,191.777344 C398.746094,227.195312 268.710938,278.585938 256,256.527344 Z" id="Shape" fill="#688EF1"></path>
            <path d="M477.703125,128.265625 C462.597656,102.046875 437.617188,104.40625 423.839844,108.257812 C432.195312,111.160156 440.386719,117.136719 446.796875,128.265625 C468.488281,165.914062 429.0625,191.777344 429.0625,191.777344 C385.054688,217.238281 305.484375,250.953125 259.5,259.703125 C283.988281,272.507812 402.398438,225.085938 459.96875,191.777344 C459.96875,191.777344 499.394531,165.914062 477.703125,128.265625 Z" id="Shape" fill="#5B7ED7"></path>
            <path d="M98.054688,111.898438 C159.273438,147.316406 268.710938,234.472656 256,256.527344 C243.289062,278.585938 113.253906,227.195312 52.03125,191.777344 C52.03125,191.777344 12.605469,165.914062 34.296875,128.265625 C55.988281,90.613281 98.054688,111.898438 98.054688,111.898438 Z" id="Shape" fill="#688EF1"></path>
            <path d="M96.597656,144.109375 C110.390625,153.15625 117.019531,167.421875 111.398438,175.980469 C105.78125,184.535156 90.042969,184.136719 76.25,175.09375 C62.453125,166.046875 55.824219,151.777344 61.445312,143.222656 C67.0625,134.664062 82.800781,135.0625 96.597656,144.109375 Z" id="Shape" fill="#FFFFFF"></path>
            <path d="M415.402344,144.109375 C401.609375,153.15625 394.980469,167.421875 400.601562,175.980469 C406.21875,184.535156 421.957031,184.136719 435.75,175.09375 C449.546875,166.046875 456.175781,151.777344 450.554688,143.222656 C444.9375,134.664062 429.199219,135.0625 415.402344,144.109375 Z" id="Shape" fill="#FFFFFF"></path>
            <path d="M485.328125,256.527344 C485.328125,246.296875 471.953125,238 455.453125,238 C438.953125,238 425.578125,246.296875 425.578125,256.527344 C425.578125,266.761719 438.953125,275.058594 455.453125,275.058594 C471.953125,275.058594 485.328125,266.761719 485.328125,256.527344 Z" id="Shape" fill="#FFFFFF"></path>
            <path d="M256,256.527344 C233.988281,243.792969 285.273438,113.484375 320.617188,52.136719 C320.617188,52.136719 346.429688,12.632812 384,34.367188 C421.570312,56.105469 400.332031,98.257812 400.332031,98.257812 C364.988281,159.605469 278.011719,269.265625 256,256.527344 Z" id="Shape" fill="#3C9AD1"></path>
            <path d="M384,34.367188 C369.285156,25.855469 356.378906,26.734375 346.117188,30.957031 C348.394531,31.867188 350.71875,32.992188 353.09375,34.367188 C390.667969,56.105469 369.429688,98.253906 369.429688,98.253906 C342.675781,144.6875 286.355469,218.78125 251.003906,246.550781 C251.632812,251.480469 253.238281,254.929688 256,256.527344 C278.011719,269.265625 364.988281,159.605469 400.335938,98.253906 C400.332031,98.257812 421.570312,56.105469 384,34.367188 Z" id="Shape" fill="#2C86C6"></path>
            <path d="M191.382812,52.136719 C226.726562,113.484375 278.011719,243.792969 256,256.527344 C233.988281,269.265625 147.011719,159.605469 111.667969,98.257812 C111.667969,98.257812 90.429688,56.105469 128,34.367188 C165.570312,12.632812 191.382812,52.136719 191.382812,52.136719 Z" id="Shape" fill="#3C9AD1"></path>
            <path d="M177.257812,80.113281 C185.507812,94.394531 185.003906,110.117188 176.136719,115.234375 C167.265625,120.351562 153.386719,112.921875 145.136719,98.644531 C136.886719,84.367188 137.390625,68.644531 146.257812,63.527344 C155.128906,58.410156 169.007812,65.835938 177.257812,80.113281 Z" id="Shape" fill="#FFFFFF"></path>
            <path d="M334.742188,80.113281 C326.492188,94.394531 326.996094,110.117188 335.863281,115.234375 C344.734375,120.351562 358.613281,112.921875 366.863281,98.644531 C375.113281,84.367188 374.609375,68.644531 365.742188,63.527344 C356.871094,58.410156 342.992188,65.835938 334.742188,80.113281 Z" id="Shape" fill="#FFFFFF"></path>
            <path d="M302.023438,47.144531 C302.023438,117.984375 281.417969,256.527344 256,256.527344 C230.582031,256.527344 209.976562,117.984375 209.976562,47.144531 C209.976562,47.144531 212.617188,-2.84217094e-14 256,-2.84217094e-14 C299.382812,-2.84217094e-14 302.023438,47.144531 302.023438,47.144531 Z" id="Shape" fill="#688EF1"></path>
            <path d="M256,6.31088724e-30 C250.132812,6.31088724e-30 245.019531,0.867188 240.546875,2.359375 C269.136719,11.894531 271.117188,47.144531 271.117188,47.144531 C271.117188,102.871094 258.363281,200.492188 240.546875,239.605469 C245.378906,250.210938 250.578125,256.527344 256,256.527344 C281.417969,256.527344 302.023438,117.980469 302.023438,47.144531 C302.023438,47.144531 299.382812,-2.84217094e-14 256,6.31088724e-30 Z" id="Shape" fill="#5B7ED7"></path>
            <path d="M274.542969,70 C274.542969,53.511719 266.242188,40.148438 256,40.148438 C245.757812,40.148438 237.457031,53.511719 237.457031,70 C237.457031,86.488281 245.757812,99.851562 256,99.851562 C266.242188,99.851562 274.542969,86.488281 274.542969,70 Z" id="Shape" fill="#FFFFFF"></path>
        </g>
        <g id="Body" transform="translate(193.000000, 106.000000)">
            <circle id="Oval-3" fill="#169166" cx="62.5" cy="27.5" r="27.5"></circle>
            <path d="M76.5,24.1795548 C78.4329966,24.1795548 80,27.4329966 80,25.5 C80,23.5670034 78.4329966,22 76.5,22 C74.5670034,22 73,23.5670034 73,25.5 C73,27.4329966 74.5670034,24.1795548 76.5,24.1795548 Z" id="Oval-2" fill="#FFFFFF"></path>
            <path d="M49.5,24.1795548 C51.4329966,24.1795548 53,27.4329966 53,25.5 C53,23.5670034 51.4329966,22 49.5,22 C47.5670034,22 46,23.5670034 46,25.5 C46,27.4329966 47.5670034,24.1795548 49.5,24.1795548 Z" id="Oval-2" fill="#FFFFFF"></path>
            <path d="M63,244 C28.292969,244 0.160156,219.109375 0.160156,188.414062 C0.160156,172.421875 7.800781,158 20.027344,147.859375 C36.269531,134.390625 45.730469,114.429688 46.867188,93.371094 L50.894531,18.589844 C51.078125,15.121094 56.5,12.382812 63,12.382812 C66.253906,12.382812 69.234375,13.070312 71.417969,14.183594 C73.609375,15.304688 75.011719,16.859375 75.105469,18.589844 L79.132812,93.371094 C80.265625,114.429688 89.730469,134.390625 105.972656,147.859375 C118.199219,158.003906 125.839844,172.421875 125.839844,188.414062 C125.839844,219.109375 97.707031,244 63,244 Z" id="Shape" fill="#16A774" fill-rule="nonzero"></path>
            <path d="M79.132812,93.371094 L75.105469,18.589844 C75.011719,16.859375 73.609375,15.304688 71.417969,14.183594 C69.234375,13.070312 66.257812,12.382812 63,12.382812 C56.5,12.382812 51.082031,15.121094 50.894531,18.589844 L47.546875,80.742188 L48.226562,93.371094 C49.363281,114.429688 58.824219,134.386719 75.066406,147.859375 C87.296875,158 94.933594,172.417969 94.933594,188.414062 C94.933594,214.390625 74.78125,236.207031 47.546875,242.300781 C52.492188,243.40625 57.667969,244 63,244 C97.707031,244 125.839844,219.109375 125.839844,188.414062 C125.839844,172.421875 118.199219,158.003906 105.972656,147.859375 C89.730469,134.390625 80.269531,114.429688 79.132812,93.371094 Z" id="Shape" fill="#169166" fill-rule="nonzero"></path>
            <path d="M50.9135568,48.042969 C56.2573068,62.261719 58.796875,75.117188 62,75.117188 C65.203125,75.117188 68.9094307,62.261719 74.2531807,48.042969 C70.2961497,39.875 54.8705878,39.875 50.9135568,48.042969 Z" id="Shape" fill="#FFF7E6" fill-rule="nonzero"></path>
        </g>
        <g id="Eyes" transform="translate(42.000000, 56.000000)" fill="#4E4444">
            <ellipse id="Oval" transform="translate(308.847671, 32.607177) rotate(-58.000000) translate(-308.847671, -32.607177) " cx="308.847671" cy="32.6071773" rx="14.5" ry="8"></ellipse>
            <ellipse id="Oval" transform="translate(383.549230, 104.325390) rotate(-31.000000) translate(-383.549230, -104.325390) " cx="383.54923" cy="104.32539" rx="14.5" ry="8"></ellipse>
            <ellipse id="Oval" transform="translate(413.733448, 201.584027) rotate(-360.000000) translate(-413.733448, -201.584027) " cx="413.733448" cy="201.584027" rx="14.5" ry="8"></ellipse>
            <ellipse id="Oval" transform="translate(214.002313, 14.539783) rotate(-450.000000) translate(-214.002313, -14.539783) " cx="214.002313" cy="14.5397829" rx="14.5" ry="8"></ellipse>
            <ellipse id="Oval" transform="translate(119.011242, 34.028541) rotate(-120.000000) translate(-119.011242, -34.028541) " cx="119.011242" cy="34.0285413" rx="14.5" ry="8"></ellipse>
            <ellipse id="Oval" transform="translate(45.159156, 104.301935) rotate(-144.000000) translate(-45.159156, -104.301935) " cx="45.1591558" cy="104.301935" rx="14.5" ry="8"></ellipse>
            <ellipse id="Oval" transform="translate(15.128166, 200.911326) rotate(-180.000000) translate(-15.128166, -200.911326) " cx="15.128166" cy="200.911326" rx="14.5" ry="8"></ellipse>
        </g>
    </g>
</svg>